# xmcd
#
# Track frame offsets:
# 150
# 18918
# 36667
# 41000
# 55873
# 79927
# 95127
# 113783
# 120004
# 132241
# 146928
# 164302
# 183470
# 199006
# 206000
# 222442
#
# Disc length: 3361 seconds
#
#
# Revision: 0
# Processed by: cddbd v1.5.1PL2 Copyright (c) Steve Scherf et al.
# Submitted via: FreeRIP 2.944 
#
DISCID=ed0d1f10
DTITLE=Mac Lethal - Love Potion Collection 2
DYEAR=2006
DGENRE=hip hop
TTITLE0=Walkin' On Nails (prod. Lazer Beak)
TTITLE1=Earth By Earth (prod. Kid Called Computer)
TTITLE2=phone interview clip
TTITLE3=Smart Dumb Person (prod. Joey Beats)
TTITLE4=a. A Slow Down Ghandi Shame (with Sage Francis/ prod. Mac Lethal)
TTITLE5=Needle Point (prod. Been)
TTITLE6=Lady Snowblood (prod. Kid Called Computer)
TTITLE7=Interlude (prod. Nezbeat)
TTITLE8=D.U.I. #1 (prod. Marshall Larada)
TTITLE9=Bottles (with Rick Whispers)
TTITLE10=Papa's Belt (prod. Nezbeat)
TTITLE11=Tangle (prod. Nezbeat)
TTITLE12=Lavendar Moon (prod. Kid Called Computer (from 1998))
TTITLE13=show clip
TTITLE14=Strike My Dead (with Steve Cruz of The Esoteri/ prod. Nezbeat)
TTITLE15=Welcome To My Myspace Page (with Joe Good/ prod. Mac Lethal)
EXTD=
EXTT0=
EXTT1=
EXTT2=
EXTT3=
EXTT4=
EXTT5=
EXTT6=
EXTT7=
EXTT8=
EXTT9=
EXTT10=
EXTT11=
EXTT12=
EXTT13=
EXTT14=
EXTT15=
PLAYORDER=
